<svg xmlns="http://www.w3.org/2000/svg" viewBox="0 0 353.85299 150.15192">
  <defs>
    <clipPath id="lf-cp1"><rect x="139.757" width="112" height="68.92" fill="none"/></clipPath>
    <clipPath id="lf-cp2"><rect x="88.267" y="88.92" width=".82" height="2.67" fill="none"/></clipPath>
  </defs>
  <g clipPath="url(#lf-cp1)">
    <path d="M242.617,51.51l-13.71,13.71c-4.66,1.47-10.59,3.31-12.13,3.42-1.96.15-3.92.21-5.82.21-5.54,0-10.91-.59-15.95-1.78-5.08-1.18-9.88-2.94-14.44-5.3,7.93-.82,18.19-3.45,25.51-10.98,2.59-2.67,2.51-6.73-.18-9.45-4.82-4.89-14.18-6.68-21.7-8.11-1.75-.34-3.41-.66-4.61-.95-8.7-2.1-15.96-3.08-22.85-3.08-3.43,0-6.79.26-9.99.77-2.3.37-4.59.88-6.86,1.53-.65-15.41,10.45-30.64,28.18-31.44.55-.03,1.1-.04,1.66-.04,10.18,0,19.4,4.2,25.97,10.98C202.267,4.22,211.487.02,221.667.02c.55,0,1.11.02,1.66.04,25.88,1.16,37.62,33.12,19.29,51.45" fill="#1e2c47"/>
  </g>
  <g clipPath="url(#lf-cp2)">
    <path d="M88.627,89.95l.12.26c-.27.13-.42.28-.48.34.11-.15.23-.35.36-.6" fill="#4A6FA5"/>
  </g>
  <path d="M200.257,100.36c-1.89.23-3.79.34-5.7.34-18,0-36.82-9.45-54.21-11.63-7.87-.98-15.6-1.9-23.19-1.9-9.27,0-18.31,1.36-27.13,5.65,2.11-1.03,6.48-16.8,8.59-20.21,3.76-6.06,8.12-11.77,13.1-16.88,8.07-8.29,17.9-15.08,28.98-18.41,2.27-.68,4.59-1.23,6.96-1.6,3.02-.48,6.04-.69,9.07-.69,7.23,0,14.44,1.22,21.48,2.92,6.07,1.46,18.96,2.86,23.53,7.49.46.46.53.89.15,1.29-6.73,6.94-17.57,9.56-27.86,9.56-.77,0-1.52-.02-2.28-.04-3.26-.12-6.42-.51-9.34-1.09-.47-.09-.95-.18-1.41-.29,9.85,9.25,20.74,15.1,32.68,17.9,5.55,1.29,11.3,1.92,17.29,1.92,2.05,0,4.12-.07,6.23-.22.71-.05,1.77-.27,3.07-.6,8.18-2.05,26.23-8.66,32.04-8.66.8,0,1.36.12,1.65.4l.07.08c7.86,10.76-48.12,33.97-53.77,34.67" fill="#4A6FA5"/>
  <path d="M35.98,117.722l-14.98,15.04,16.44,16.46H23.46l-12.6-12.58v12.58H0v-52.79h10.85v32.29l11-11h14.13Z" fill="#1e2c47"/>
  <path d="M37.877,145.322c-2.95-3.21-4.42-7.15-4.42-11.81s1.47-8.61,4.42-11.85c2.94-3.23,6.69-4.85,11.23-4.85,4.18,0,7.61,1.31,10.31,3.94v-3.02h10.88v31.5H59.537v-3.56h-.12c-2.7,2.99-6.14,4.48-10.31,4.48-4.55-.01-8.3-1.62-11.24-4.83Zm9.23-17.16c-1.41,1.39-2.1,3.18-2.1,5.35s.67,3.94,2.02,5.31c1.34,1.36,3.12,2.04,5.33,2.04,2.14,0,3.89-.69,5.25-2.08,1.38-1.39,2.06-3.15,2.06-5.27,0-2.18-.71-3.96-2.12-5.35s-3.14-2.08-5.19-2.08c-2.08-.01-3.83.69-5.25,2.08Z" fill="#1e2c47"/>
  <path d="M73.737,149.222v-31.5h10.85v4.54h.12c.08-.17.21-.36.4-.6.19-.25.59-.68,1.21-1.29.61-.61,1.26-1.16,1.96-1.65.69-.5,1.59-.94,2.69-1.33,1.11-.39,2.24-.58,3.4-.58,1.18,0,2.34.17,3.5.5,1.15.32,1.99.65,2.52.98l.85.48-4.54,9.21c-1.35-1.14-3.23-1.71-5.65-1.71-1.31,0-2.43.29-3.38.85-.95.57-1.61,1.27-2,2.08-.39.82-.67,1.52-.83,2.1-.17.57-.25,1.02-.25,1.33v16.58H73.737v.01Z" fill="#1e2c47"/>
  <path d="M100.379,149.222v-31.5h10.85v3.31h.12c2.83-2.82,5.84-4.23,9.04-4.23,2.29,0,4.44.47,6.44,1.42s3.51,2.4,4.54,4.35c3.19-3.84,6.67-5.77,10.44-5.77,3.36,0,6.24.95,8.65,2.83,2.42,1.88,3.62,4.82,3.62,8.83v20.75h-10.85v-17.81c0-1.67-.47-3.06-1.4-4.19-.92-1.14-2.29-1.71-4.12-1.71-1.6,0-2.82.49-3.67,1.46-.83.96-1.29,2.11-1.38,3.46v18.79h-10.87v-17.81c0-1.67-.46-3.06-1.38-4.19-.92-1.14-2.3-1.71-4.15-1.71-1.68,0-2.95.53-3.79,1.58-.83,1.04-1.25,2.28-1.25,3.71v18.42h-10.84v.01Z" fill="#1e2c47"/>
  <path d="M159.064,145.322c-2.95-3.21-4.42-7.15-4.42-11.81s1.47-8.61,4.42-11.85c2.94-3.23,6.69-4.85,11.23-4.85,4.18,0,7.61,1.31,10.31,3.94v-3.02h10.88v31.5h-10.76v-3.56h-.12c-2.7,2.99-6.14,4.48-10.31,4.48-4.54-.01-8.29-1.62-11.23-4.83Zm9.23-17.16c-1.41,1.39-2.1,3.18-2.1,5.35s.67,3.94,2.02,5.31c1.34,1.36,3.12,2.04,5.33,2.04,2.14,0,3.89-.69,5.25-2.08,1.38-1.39,2.06-3.15,2.06-5.27,0-2.18-.71-3.96-2.12-5.35s-3.14-2.08-5.19-2.08c-2.09-.01-3.84.69-5.25,2.08Z" fill="#1e2c47"/>
  <path d="M230.894,117.722l-14.98,15.04,16.44,16.46h-13.98l-12.6-12.58v12.58h-10.86v-52.79h10.85v32.29l11-11h14.13Z" fill="#1e2c47"/>
  <path d="M232.791,145.322c-2.95-3.21-4.42-7.15-4.42-11.81s1.47-8.61,4.42-11.85c2.94-3.23,6.69-4.85,11.23-4.85,4.18,0,7.61,1.31,10.31,3.94v-3.02h10.88v31.5h-10.75v-3.56h-.13c-2.7,2.99-6.14,4.48-10.31,4.48-4.54-.01-8.29-1.62-11.23-4.83Zm9.23-17.16c-1.41,1.39-2.1,3.18-2.1,5.35s.67,3.94,2.02,5.31c1.34,1.36,3.12,2.04,5.33,2.04,2.14,0,3.89-.69,5.25-2.08,1.38-1.39,2.06-3.15,2.06-5.27,0-2.18-.71-3.96-2.12-5.35s-3.14-2.08-5.19-2.08c-2.08-.01-3.83.69-5.25,2.08Z" fill="#1e2c47"/>
  <path d="M270.791,145.322c-2.95-3.21-4.42-7.15-4.42-11.81s1.47-8.61,4.42-11.85c2.94-3.23,6.69-4.85,11.23-4.85,4.18,0,7.61,1.31,10.31,3.94v-3.02h10.88v31.5h-10.75v-3.56h-.12c-2.7,2.99-6.14,4.48-10.31,4.48-4.55-.01-8.3-1.62-11.24-4.83Zm9.23-17.16c-1.41,1.39-2.1,3.18-2.1,5.35s.67,3.94,2.02,5.31c1.34,1.36,3.12,2.04,5.33,2.04,2.14,0,3.89-.69,5.25-2.08,1.38-1.39,2.06-3.15,2.06-5.27,0-2.18-.71-3.96-2.12-5.35s-3.14-2.08-5.19-2.08c-2.08-.01-3.83.69-5.25,2.08Z" fill="#1e2c47"/>
  <path d="M306.641,149.222v-31.5h10.85v4.54h.12c.08-.17.21-.36.4-.6.19-.25.59-.68,1.21-1.29.61-.61,1.26-1.16,1.96-1.65.69-.5,1.59-.94,2.69-1.33,1.11-.39,2.24-.58,3.4-.58,1.18,0,2.34.17,3.5.5,1.15.32,1.99.65,2.52.98l.85.48-4.54,9.21c-1.35-1.14-3.23-1.71-5.65-1.71-1.31,0-2.43.29-3.38.85-.95.57-1.61,1.27-2,2.08-.39.82-.67,1.52-.83,2.1-.17.57-.25,1.02-.25,1.33v16.58h-10.85v.01Z" fill="#1e2c47"/>
  <path d="M335.123,117.722v-11.73h10.88v11.73h6.62v8.29h-6.62v10c0,2.92.82,4.38,2.46,4.38.4,0,.82-.08,1.27-.25.46-.17.81-.33,1.06-.5l.35-.25,2.71,8.79c-2.33,1.3-4.99,1.66-7.98,1.96-2.04,0-3.81-.35-5.29-1.06-1.47-.72-2.59-1.69-3.35-2.9-.75-1.21-1.29-2.47-1.62-3.79-.32-1.33-.48-2.76-.48-4.27v-12.1h-4.54v-8.29h4.53v-.01Z" fill="#1e2c47"/>
</svg>
